<?xml version="1.0" standalone="no"?>
<!DOCTYPE svg PUBLIC "-//W3C//DTD SVG 20010904//EN"
 "http://www.w3.org/TR/2001/REC-SVG-20010904/DTD/svg10.dtd">
<svg version="1.0" xmlns="http://www.w3.org/2000/svg"
 width="512.000000pt" height="512.000000pt" viewBox="0 0 512.000000 512.000000"
 preserveAspectRatio="xMidYMid meet">
<metadata>
Created by potrace 1.14, written by Peter Selinger 2001-2017
</metadata>
<g transform="translate(0.000000,512.000000) scale(0.100000,-0.100000)"
fill="#000000" stroke="none">
<path d="M2379 5116 c-2 -2 -40 -6 -83 -10 -44 -4 -82 -8 -85 -10 -3 -2 -31
-7 -61 -11 -30 -3 -75 -11 -100 -17 -25 -5 -56 -12 -70 -14 -48 -10 -197 -54
-286 -85 -398 -140 -788 -408 -1064 -729 -64 -74 -76 -89 -143 -180 -208 -280
-367 -643 -436 -995 -40 -200 -46 -267 -45 -515 0 -184 3 -241 19 -345 3 -16
7 -43 9 -60 37 -265 165 -623 307 -860 10 -16 27 -46 38 -65 19 -36 131 -195
166 -239 246 -301 506 -518 820 -685 228 -122 538 -225 781 -261 22 -4 50 -8
64 -11 144 -26 531 -26 708 1 75 12 90 14 142 25 30 6 66 13 80 16 111 21 368
110 505 175 657 311 1148 878 1364 1576 18 56 34 113 37 128 3 15 11 55 19 89
36 155 50 297 50 521 0 193 -3 251 -16 330 -4 28 -10 66 -13 85 -2 19 -10 60
-16 90 -6 30 -14 66 -16 80 -11 55 -56 205 -88 292 -108 294 -253 544 -451
778 -411 485 -968 794 -1595 885 -19 3 -53 7 -75 11 -44 6 -460 15 -466 10z
m275 -440 c20 -40 24 -147 12 -326 -3 -41 -7 -133 -11 -205 -10 -219 -24 -313
-49 -320 -6 -2 -58 -6 -116 -9 -107 -6 -254 -33 -325 -59 -22 -9 -70 -27 -107
-41 -102 -40 -187 -30 -243 27 -22 23 -234 375 -293 487 -30 56 -33 71 -28
114 8 72 39 112 121 153 161 82 388 156 585 189 14 2 34 6 45 9 11 2 58 7 105
11 47 3 86 7 87 8 1 0 46 1 100 1 l98 0 19 -39z m-1382 -528 c29 -17 83 -78
191 -218 84 -107 157 -200 163 -207 42 -44 78 -120 82 -172 4 -61 -11 -87 -59
-96 -59 -12 -120 21 -246 131 -37 32 -124 108 -193 168 -69 60 -132 117 -141
126 -63 63 -61 175 3 237 60 58 132 69 200 31z m1513 -713 c618 -157 883 -898
504 -1412 -142 -192 -380 -334 -606 -360 -338 -40 -650 93 -853 361 -78 104
-150 277 -167 406 -48 369 123 725 442 912 202 119 446 153 680 93z m774
-1812 c28 -16 76 -50 108 -78 31 -27 114 -101 185 -162 71 -62 147 -129 169
-150 116 -107 56 -285 -96 -285 -64 0 -114 32 -170 107 -17 22 -35 45 -41 50
-15 14 -255 313 -282 351 -12 17 -27 51 -33 76 -29 107 48 151 160 91z m-324
-239 c45 -24 53 -34 240 -322 147 -228 160 -260 136 -335 -20 -60 -47 -81
-193 -146 -112 -50 -317 -114 -433 -135 -196 -36 -467 -55 -507 -34 -10 4 -24
31 -32 59 -15 49 -15 130 -2 344 3 39 8 120 11 180 10 194 23 273 48 293 6 5
63 12 125 15 62 3 116 8 120 10 4 3 28 8 55 11 26 4 98 24 160 45 131 45 205
49 272 15z"/>
<path d="M2509 2889 c-162 -24 -280 -162 -281 -329 -1 -183 142 -329 327 -332
299 -5 451 355 240 567 -78 78 -177 110 -286 94z"/>
</g>
</svg>
